<!-- Generated by IcoMoon.io -->
<svg version="1.1" xmlns="http://www.w3.org/2000/svg" width="32" height="32" viewBox="0 0 32 32">
<title>add-button</title>
<path d="M27.316 4.687c-1.226-1.226-2.598-2.222-4.077-2.961-0.322-0.161-0.713-0.030-0.874 0.292s-0.030 0.713 0.292 0.874c1.353 0.676 2.611 1.59 3.738 2.717 5.732 5.732 5.732 15.058 0 20.79s-15.058 5.732-20.79 0-5.732-15.058 0-20.79c2.777-2.777 6.468-4.306 10.395-4.306 0.36 0 0.651-0.292 0.651-0.651s-0.292-0.651-0.651-0.651c-4.275 0-8.293 1.665-11.316 4.687-6.24 6.24-6.24 16.393 0 22.633 3.12 3.12 7.218 4.68 11.316 4.68s8.196-1.56 11.316-4.68c6.24-6.24 6.24-16.393 0-22.633z"></path>
<path d="M16 5.644c-0.36 0-0.651 0.292-0.651 0.651v19.417c0 0.36 0.292 0.651 0.651 0.651s0.651-0.292 0.651-0.651v-19.417c0-0.36-0.292-0.651-0.651-0.651z"></path>
<path d="M18.605 16.655h7.103c0.36 0 0.651-0.292 0.651-0.651s-0.292-0.651-0.651-0.651h-7.103c-0.36 0-0.651 0.292-0.651 0.651s0.292 0.651 0.651 0.651z"></path>
<path d="M6.292 15.352c-0.36 0-0.651 0.292-0.651 0.651s0.292 0.651 0.651 0.651h6.886c0.36 0 0.651-0.292 0.651-0.651s-0.292-0.651-0.651-0.651h-6.886z"></path>
</svg>
