<!-- Generated by IcoMoon.io -->
<svg version="1.1" xmlns="http://www.w3.org/2000/svg" width="32" height="32" viewBox="0 0 32 32">
<title>apps</title>
<path d="M3.616 0c-1.915 0-3.473 1.558-3.473 3.473 0 0.36 0.292 0.651 0.651 0.651s0.651-0.292 0.651-0.651c0-1.197 0.974-2.17 2.17-2.17s2.17 0.974 2.17 2.17-0.974 2.17-2.17 2.17c-0.36 0-0.651 0.292-0.651 0.651s0.292 0.651 0.651 0.651c1.915 0 3.473-1.558 3.473-3.473s-1.558-3.473-3.473-3.473z"></path>
<path d="M16 0c-1.915 0-3.473 1.558-3.473 3.473s1.558 3.473 3.473 3.473 3.473-1.558 3.473-3.473-1.558-3.473-3.473-3.473zM16 5.643c-1.197 0-2.17-0.974-2.17-2.17s0.974-2.17 2.17-2.17 2.17 0.974 2.17 2.17c0 1.197-0.974 2.17-2.17 2.17z"></path>
<path d="M28.384 6.945c1.915 0 3.473-1.558 3.473-3.473s-1.558-3.473-3.473-3.473-3.473 1.558-3.473 3.473 1.558 3.473 3.473 3.473zM28.384 1.302c1.197 0 2.17 0.974 2.17 2.17s-0.974 2.17-2.17 2.17-2.17-0.974-2.17-2.17c0-1.197 0.974-2.17 2.17-2.17z"></path>
<path d="M3.616 12.527c-1.915 0-3.473 1.558-3.473 3.473s1.558 3.473 3.473 3.473 3.473-1.558 3.473-3.473-1.558-3.473-3.473-3.473zM3.616 18.17c-1.197 0-2.17-0.974-2.17-2.17s0.974-2.17 2.17-2.17c1.197 0 2.17 0.974 2.17 2.17s-0.974 2.17-2.17 2.17z"></path>
<path d="M18.821 15.349c-0.36 0-0.651 0.292-0.651 0.651 0 1.197-0.974 2.17-2.17 2.17s-2.17-0.974-2.17-2.17 0.974-2.17 2.17-2.17c0.36 0 0.651-0.292 0.651-0.651s-0.292-0.651-0.651-0.651c-1.915 0-3.473 1.558-3.473 3.473s1.558 3.473 3.473 3.473 3.473-1.558 3.473-3.473c0-0.36-0.292-0.651-0.651-0.651z"></path>
<path d="M28.384 12.527c-1.915 0-3.473 1.558-3.473 3.473s1.558 3.473 3.473 3.473 3.473-1.558 3.473-3.473-1.558-3.473-3.473-3.473zM28.384 18.17c-1.197 0-2.17-0.974-2.17-2.17s0.974-2.17 2.17-2.17c1.197 0 2.17 0.974 2.17 2.17s-0.974 2.17-2.17 2.17z"></path>
<path d="M3.616 25.055c-1.915 0-3.473 1.558-3.473 3.473s1.558 3.473 3.473 3.473 3.473-1.558 3.473-3.473-1.558-3.473-3.473-3.473zM3.616 30.698c-1.197 0-2.17-0.974-2.17-2.17s0.974-2.17 2.17-2.17 2.17 0.974 2.17 2.17c0 1.197-0.974 2.17-2.17 2.17z"></path>
<path d="M16 25.055c-1.915 0-3.473 1.558-3.473 3.473s1.558 3.473 3.473 3.473 3.473-1.558 3.473-3.473-1.558-3.473-3.473-3.473zM16 30.698c-1.197 0-2.17-0.974-2.17-2.17s0.974-2.17 2.17-2.17 2.17 0.974 2.17 2.17c0 1.197-0.974 2.17-2.17 2.17z"></path>
<path d="M28.384 25.055c-1.915 0-3.473 1.558-3.473 3.473s1.558 3.473 3.473 3.473 3.473-1.558 3.473-3.473-1.558-3.473-3.473-3.473zM28.384 30.698c-1.197 0-2.17-0.974-2.17-2.17s0.974-2.17 2.17-2.17c1.197 0 2.17 0.974 2.17 2.17s-0.974 2.17-2.17 2.17z"></path>
</svg>
