<!-- Generated by IcoMoon.io -->
<svg version="1.1" xmlns="http://www.w3.org/2000/svg" width="32" height="32" viewBox="0 0 32 32">
<title>at</title>
<path d="M16 9.532c3.566 0 6.468 2.902 6.468 6.468 0 0.515 0.417 0.932 0.932 0.932s0.932-0.417 0.932-0.932c0-4.594-3.738-8.332-8.332-8.332s-8.332 3.738-8.332 8.332 3.738 8.332 8.332 8.332c2.95 0 5.708-1.584 7.198-4.133 0.26-0.444 0.11-1.015-0.334-1.275s-1.015-0.11-1.275 0.334c-1.157 1.98-3.298 3.21-5.589 3.21-3.566 0-6.468-2.901-6.468-6.468s2.902-6.468 6.468-6.468z"></path>
<path d="M31.954 14.766c-0.584-7.776-6.886-14.102-14.658-14.715-4.698-0.37-9.294 1.319-12.61 4.635s-5.006 7.912-4.635 12.61c0.611 7.743 6.91 14.043 14.653 14.653 0.427 0.034 0.852 0.050 1.276 0.050 4.245 0 8.319-1.67 11.334-4.685 0.364-0.364 0.364-0.954 0-1.318s-0.954-0.364-1.318-0c-2.93 2.93-6.992 4.423-11.145 4.095-6.839-0.539-12.402-6.103-12.942-12.942-0.327-4.153 1.165-8.216 4.095-11.145s6.992-4.423 11.145-4.095c6.864 0.541 12.43 6.128 12.946 12.996 0.071 0.941 0.050 1.886-0.062 2.81-0.118 0.979-0.711 1.834-1.586 2.286-0.791 0.409-1.681 0.407-2.44-0.004-0.453-0.246-1.018-0.078-1.264 0.375s-0.078 1.018 0.375 1.264c1.31 0.71 2.835 0.718 4.184 0.022 1.424-0.735 2.388-2.125 2.581-3.718 0.126-1.044 0.15-2.111 0.070-3.173z"></path>
</svg>
