<!-- Generated by IcoMoon.io -->
<svg version="1.1" xmlns="http://www.w3.org/2000/svg" width="32" height="32" viewBox="0 0 32 32">
<title>bookmark</title>
<path d="M23.109 0h-14.218c-0.36 0-0.651 0.292-0.651 0.651v30.698c0 0.25 0.143 0.478 0.368 0.586 0.090 0.044 0.187 0.065 0.283 0.065 0.144 0 0.288-0.048 0.405-0.141l7.108-5.643c0.282-0.224 0.329-0.633 0.105-0.915s-0.633-0.329-0.915-0.105l-6.052 4.804v-28.698h12.915v28.698l-2.906-2.306c-0.282-0.224-0.691-0.176-0.915 0.105s-0.176 0.691 0.105 0.915l3.962 3.144c0.195 0.155 0.463 0.185 0.688 0.076s0.368-0.337 0.368-0.586v-30.698c0-0.36-0.292-0.651-0.651-0.651z"></path>
<path d="M11.17 3.881h9.659c0.36 0 0.651-0.292 0.651-0.651s-0.292-0.651-0.651-0.651h-9.659c-0.36 0-0.651 0.292-0.651 0.651s0.292 0.651 0.651 0.651z"></path>
<path d="M11.17 6.448h9.659c0.36 0 0.651-0.292 0.651-0.651s-0.292-0.651-0.651-0.651h-9.659c-0.36 0-0.651 0.292-0.651 0.651s0.292 0.651 0.651 0.651z"></path>
<path d="M17.954 7.713h-6.783c-0.36 0-0.651 0.292-0.651 0.651s0.292 0.651 0.651 0.651h6.783c0.36 0 0.651-0.292 0.651-0.651s-0.292-0.651-0.651-0.651z"></path>
</svg>
