<!-- Generated by IcoMoon.io -->
<svg version="1.1" xmlns="http://www.w3.org/2000/svg" width="32" height="32" viewBox="0 0 32 32">
<title>browser</title>
<path d="M31.349 0h-30.698c-0.36 0-0.651 0.292-0.651 0.651v30.698c0 0.36 0.292 0.651 0.651 0.651s0.651-0.292 0.651-0.651v-24.404h26.202c0.36 0 0.651-0.292 0.651-0.651s-0.292-0.651-0.651-0.651h-26.202v-4.34h29.395v29.395h-23.489c-0.36 0-0.651 0.292-0.651 0.651s0.292 0.651 0.651 0.651h24.14c0.36 0 0.651-0.292 0.651-0.651v-30.698c0-0.36-0.292-0.651-0.651-0.651z"></path>
<path d="M3.004 3.012c-0.12 0.122-0.19 0.29-0.19 0.461s0.069 0.339 0.19 0.46c0.122 0.12 0.289 0.19 0.46 0.19s0.34-0.069 0.461-0.19c0.12-0.122 0.19-0.289 0.19-0.46s-0.070-0.34-0.19-0.461c-0.122-0.12-0.29-0.19-0.461-0.19-0.17 0-0.339 0.069-0.46 0.19z"></path>
<path d="M5.175 3.012c-0.122 0.122-0.191 0.29-0.191 0.461 0 0.17 0.069 0.339 0.191 0.46 0.12 0.12 0.289 0.19 0.46 0.19s0.34-0.069 0.46-0.19c0.121-0.122 0.191-0.289 0.191-0.46s-0.070-0.34-0.191-0.461c-0.12-0.12-0.289-0.19-0.46-0.19s-0.34 0.069-0.46 0.19z"></path>
<path d="M7.345 3.012c-0.12 0.122-0.19 0.29-0.19 0.461 0 0.17 0.069 0.339 0.19 0.46 0.122 0.12 0.289 0.191 0.46 0.191s0.34-0.071 0.461-0.191c0.121-0.122 0.191-0.29 0.191-0.46 0-0.171-0.070-0.34-0.191-0.461-0.122-0.12-0.29-0.191-0.461-0.191s-0.338 0.071-0.46 0.191z"></path>
</svg>
