<!-- Generated by IcoMoon.io -->
<svg version="1.1" xmlns="http://www.w3.org/2000/svg" width="32" height="32" viewBox="0 0 32 32">
<title>browser-visualization</title>
<path d="M31.349 0h-30.698c-0.36 0-0.651 0.292-0.651 0.651v30.698c0 0.36 0.292 0.651 0.651 0.651h30.698c0.36 0 0.651-0.292 0.651-0.651v-30.698c0-0.36-0.292-0.651-0.651-0.651zM1.302 30.698v-29.395h29.395v4.34h-27.179c-0.36 0-0.651 0.292-0.651 0.651s0.292 0.651 0.651 0.651h27.179v23.752h-29.395z"></path>
<path d="M3.464 4.123c0.171 0 0.34-0.069 0.461-0.19 0.12-0.122 0.19-0.289 0.19-0.46s-0.070-0.34-0.19-0.461c-0.122-0.12-0.29-0.19-0.461-0.19-0.17 0-0.339 0.069-0.46 0.19-0.12 0.122-0.19 0.29-0.19 0.461s0.069 0.339 0.19 0.46c0.122 0.12 0.289 0.19 0.46 0.19z"></path>
<path d="M5.635 4.124c0.171 0 0.34-0.069 0.46-0.191s0.191-0.29 0.191-0.461c0-0.17-0.070-0.339-0.191-0.46-0.12-0.122-0.289-0.191-0.46-0.191s-0.34 0.069-0.46 0.191c-0.122 0.122-0.191 0.29-0.191 0.46 0 0.171 0.069 0.34 0.191 0.461s0.289 0.191 0.46 0.191z"></path>
<path d="M7.805 4.123c0.171 0 0.34-0.069 0.461-0.19 0.121-0.122 0.191-0.29 0.191-0.461 0-0.17-0.070-0.339-0.191-0.46-0.122-0.12-0.29-0.19-0.461-0.19s-0.339 0.069-0.46 0.19c-0.12 0.122-0.19 0.29-0.19 0.46 0 0.171 0.069 0.34 0.19 0.461 0.122 0.12 0.289 0.19 0.46 0.19z"></path>
<path d="M26.752 17.743c-0.329-0.145-0.713 0.004-0.859 0.333-1.731 3.922-5.614 6.456-9.893 6.456-4.182 0-7.987-2.421-9.773-6.193 1.786-3.772 5.591-6.193 9.773-6.193 3.032 0 5.945 1.288 7.989 3.534 0.242 0.266 0.654 0.285 0.92 0.043s0.285-0.654 0.043-0.92c-2.291-2.516-5.554-3.959-8.952-3.959-4.794 0-9.145 2.839-11.085 7.233-0.074 0.167-0.074 0.358 0 0.526 1.939 4.394 6.29 7.233 11.085 7.233s9.145-2.839 11.085-7.233c0.145-0.329-0.004-0.714-0.333-0.859z"></path>
<path d="M11.456 18.338c0 2.506 2.038 4.544 4.544 4.544s4.544-2.038 4.544-4.544c0-2.506-2.038-4.544-4.544-4.544s-4.544 2.038-4.544 4.544zM19.242 18.338c0 1.787-1.454 3.242-3.242 3.242s-3.242-1.454-3.242-3.242c0-1.788 1.454-3.242 3.242-3.242s3.242 1.454 3.242 3.242z"></path>
</svg>
