<!-- Generated by IcoMoon.io -->
<svg version="1.1" xmlns="http://www.w3.org/2000/svg" width="32" height="32" viewBox="0 0 32 32">
<title>check-square</title>
<path d="M26.53 10.457c-0.425 0-0.77 0.345-0.77 0.77v19.234h-24.221v-24.221h18.833c0.425 0 0.77-0.345 0.77-0.77s-0.345-0.77-0.77-0.77h-19.602c-0.425 0-0.77 0.345-0.77 0.77v25.76c0 0.425 0.345 0.77 0.77 0.77h25.76c0.425 0 0.77-0.345 0.77-0.77v-20.004c0-0.425-0.345-0.77-0.77-0.77z"></path>
<path d="M31.774 0.226c-0.301-0.301-0.788-0.301-1.089 0l-20.369 20.369-5.054-5.054c-0.301-0.301-0.788-0.301-1.089 0s-0.301 0.788 0 1.088l5.598 5.598c0.15 0.15 0.347 0.226 0.544 0.226s0.394-0.075 0.544-0.226l20.913-20.913c0.301-0.301 0.301-0.788 0-1.089z"></path>
</svg>
