<!-- Generated by IcoMoon.io -->
<svg version="1.1" xmlns="http://www.w3.org/2000/svg" width="32" height="32" viewBox="0 0 32 32">
<title>chrome-logo</title>
<path d="M16 0c-6.384 0-11.906 3.759-14.471 9.179-0.016 0.029-0.030 0.057-0.041 0.088-0.954 2.048-1.488 4.329-1.488 6.734 0 2.601 0.638 5.183 1.846 7.468 0.168 0.318 0.562 0.439 0.88 0.271s0.44-0.562 0.271-0.88c-1.109-2.098-1.695-4.469-1.695-6.859 0-1.894 0.36-3.706 1.016-5.37l9.383 9.383c0.039 0.039 0.082 0.070 0.127 0.096 1.016 1.034 2.429 1.678 3.99 1.678 0.166 0 0.33-0.009 0.493-0.023l-7.212 7.212c-0.905-0.481-1.763-1.057-2.556-1.724-0.275-0.232-0.686-0.196-0.918 0.079s-0.196 0.686 0.079 0.918c0.929 0.782 1.939 1.449 3.008 1.995 0.006 0.007 0.011 0.015 0.018 0.022 0.112 0.112 0.255 0.172 0.402 0.185 2.131 1.012 4.478 1.55 6.868 1.55 8.822 0 16-7.178 16-16s-7.178-16-16-16zM16 30.698c-1.952 0-3.873-0.39-5.651-1.13l9.364-9.364c0.001-0.001 0.002-0.003 0.003-0.004 1.045-1.017 1.696-2.437 1.696-4.007 0-1.722-0.783-3.265-2.011-4.292h7.235c0.36 0 0.651-0.292 0.651-0.651s-0.292-0.651-0.651-0.651h-10.819c-1.113 0-2.189 0.326-3.11 0.944-0.299 0.2-0.379 0.605-0.179 0.903s0.605 0.379 0.903 0.179c0.706-0.473 1.531-0.723 2.385-0.723 2.367 0 4.292 1.925 4.292 4.292s-1.925 4.292-4.292 4.292-4.292-1.925-4.292-4.292c0-0.36-0.292-0.651-0.651-0.651s-0.651 0.292-0.651 0.651c0 0.177 0.009 0.353 0.025 0.526l-7.358-7.359c2.429-4.777 7.393-8.058 13.11-8.058 8.104 0 14.698 6.593 14.698 14.698s-6.593 14.698-14.698 14.698z"></path>
</svg>
