<!-- Generated by IcoMoon.io -->
<svg version="1.1" xmlns="http://www.w3.org/2000/svg" width="32" height="32" viewBox="0 0 32 32">
<title>close</title>
<path d="M16 0c-8.822 0-16 7.178-16 16s7.178 16 16 16c4.155 0 8.093-1.586 11.088-4.465 0.259-0.249 0.267-0.662 0.018-0.921s-0.661-0.267-0.921-0.018c-2.751 2.645-6.368 4.101-10.185 4.101-8.104 0-14.698-6.593-14.698-14.698s6.593-14.698 14.698-14.698 14.698 6.593 14.698 14.698c0 1.828-0.331 3.611-0.985 5.3-0.13 0.335 0.037 0.712 0.372 0.842s0.712-0.037 0.842-0.372c0.711-1.84 1.072-3.781 1.072-5.77 0-8.822-7.178-16-16-16z"></path>
<path d="M18.192 17.38c-0.257-0.252-0.669-0.247-0.921 0.010s-0.247 0.669 0.010 0.921l5.127 5.018c0.127 0.124 0.291 0.186 0.456 0.186 0.169 0 0.338-0.065 0.465-0.196 0.252-0.257 0.247-0.669-0.010-0.921l-5.127-5.018z"></path>
<path d="M13.586 14.507c0.127 0.127 0.294 0.191 0.46 0.191s0.333-0.064 0.46-0.191c0.254-0.254 0.254-0.667 0-0.921l-4.91-4.91c-0.254-0.254-0.667-0.254-0.921 0s-0.254 0.667 0 0.921l4.909 4.91z"></path>
<path d="M23.324 8.676c-0.254-0.254-0.667-0.254-0.921 0l-13.726 13.726c-0.254 0.254-0.254 0.667 0 0.921 0.127 0.127 0.294 0.191 0.46 0.191s0.333-0.064 0.46-0.191l13.726-13.726c0.254-0.254 0.254-0.667 0-0.921z"></path>
</svg>
