<!-- Generated by IcoMoon.io -->
<svg version="1.1" xmlns="http://www.w3.org/2000/svg" width="32" height="32" viewBox="0 0 32 32">
<title>compass</title>
<path d="M16 0c-8.822 0-16 7.178-16 16 0 0.36 0.292 0.651 0.651 0.651s0.651-0.292 0.651-0.651c0-8.104 6.593-14.698 14.698-14.698s14.698 6.593 14.698 14.698-6.593 14.698-14.698 14.698c-5.514 0-10.517-3.043-13.057-7.943-0.166-0.319-0.558-0.444-0.878-0.278s-0.444 0.558-0.278 0.878c2.765 5.333 8.211 8.646 14.213 8.646 8.822 0 16-7.178 16-16s-7.178-16-16-16z"></path>
<path d="M16.84 16c0 0.464-0.376 0.84-0.84 0.84s-0.84-0.376-0.84-0.84c0-0.464 0.376-0.84 0.84-0.84s0.84 0.376 0.84 0.84z"></path>
<path d="M13.18 18.82c0.777 0.777 1.799 1.166 2.82 1.166s2.042-0.389 2.82-1.166c2.444-2.444 4.576-9.202 4.665-9.489 0.107-0.343-0.084-0.709-0.427-0.816s-0.709 0.084-0.816 0.427c-0.005 0.017-0.537 1.711-1.348 3.672-1.055 2.552-2.091 4.38-2.995 5.284-1.047 1.047-2.75 1.047-3.798 0s-1.047-2.75 0-3.797c0.777-0.777 2.349-1.696 4.548-2.658 0.329-0.144 0.48-0.528 0.336-0.858s-0.528-0.48-0.858-0.335c-2.379 1.041-4.043 2.027-4.946 2.93-1.555 1.555-1.555 4.084 0 5.639z"></path>
<path d="M16.651 6.294v-2.468c0-0.36-0.292-0.651-0.651-0.651s-0.651 0.292-0.651 0.651v2.468c0 0.36 0.292 0.651 0.651 0.651s0.651-0.292 0.651-0.651z"></path>
<path d="M15.349 25.706v2.468c0 0.36 0.292 0.651 0.651 0.651s0.651-0.292 0.651-0.651v-2.468c0-0.36-0.292-0.651-0.651-0.651s-0.651 0.292-0.651 0.651z"></path>
<path d="M28.174 16.651c0.36 0 0.651-0.292 0.651-0.651s-0.292-0.651-0.651-0.651h-2.468c-0.36 0-0.651 0.292-0.651 0.651s0.292 0.651 0.651 0.651h2.468z"></path>
<path d="M6.294 16.651c0.36 0 0.651-0.292 0.651-0.651s-0.292-0.651-0.651-0.651h-2.468c-0.36 0-0.651 0.292-0.651 0.651s0.292 0.651 0.651 0.651h2.468z"></path>
</svg>
