<!-- Generated by IcoMoon.io -->
<svg version="1.1" xmlns="http://www.w3.org/2000/svg" width="32" height="32" viewBox="0 0 32 32">
<title>compass-1</title>
<path d="M27.314 4.691c-3.020-3.018-7.038-4.684-11.313-4.691-0.009 0-0.017 0-0.026 0-3.702 0-7.309 1.293-10.158 3.642-0.278 0.229-0.317 0.639-0.088 0.917s0.639 0.317 0.917 0.088c2.616-2.157 5.928-3.344 9.329-3.344 0.008 0 0.016 0 0.024 0 8.105 0.013 14.699 6.606 14.699 14.698 0 8.104-6.593 14.698-14.698 14.698-8.095 0-14.689-6.594-14.698-14.698-0.002-1.714 0.288-3.392 0.861-4.989 0.122-0.338-0.054-0.711-0.393-0.833s-0.711 0.054-0.833 0.393c-0.624 1.738-0.94 3.565-0.938 5.43 0.010 8.822 7.187 15.999 16 15.999 8.822 0 16-7.178 16-16 0-4.272-1.664-8.289-4.686-11.309z"></path>
<path d="M20.708 5.101c-1.489-0.644-3.073-0.971-4.708-0.971-6.545 0-11.87 5.325-11.87 11.87s5.325 11.87 11.87 11.87 11.87-5.325 11.87-11.87c0-0.36-0.292-0.651-0.651-0.651h-2.382c-0.36 0-0.651 0.292-0.651 0.651s0.292 0.651 0.651 0.651h1.71c-0.324 5.309-4.586 9.571-9.896 9.896v-1.71c0-0.36-0.292-0.651-0.651-0.651s-0.651 0.292-0.651 0.651v1.71c-5.309-0.324-9.571-4.586-9.896-9.896h1.71c0.36 0 0.651-0.292 0.651-0.651s-0.292-0.651-0.651-0.651h-1.71c0.324-5.309 4.586-9.571 9.896-9.896v1.71c0 0.36 0.292 0.651 0.651 0.651s0.651-0.292 0.651-0.651v-1.71c1.226 0.074 2.414 0.356 3.54 0.843 0.33 0.143 0.713-0.009 0.856-0.339s-0.009-0.713-0.339-0.856z"></path>
<path d="M20.621 10.538l-5.763 2.334c-0.449 0.164-0.861 0.425-1.209 0.774-0.298 0.298-0.527 0.64-0.688 1.004-0.016 0.028-0.031 0.056-0.044 0.087l-2.387 5.892c-0.098 0.242-0.042 0.52 0.143 0.705 0.124 0.125 0.291 0.191 0.461 0.191 0.082 0 0.165-0.016 0.244-0.048l5.893-2.386c0.028-0.012 0.055-0.025 0.081-0.040 0.372-0.164 0.714-0.397 1.009-0.693 0.315-0.315 0.553-0.679 0.716-1.066 0.002-0.005 0.005-0.008 0.006-0.013l2.386-5.893c0.098-0.242 0.042-0.52-0.143-0.705s-0.462-0.242-0.705-0.143zM16.005 13.973c0.542 0 1.052 0.211 1.435 0.595 0.791 0.791 0.791 2.079 0 2.87-0.383 0.383-0.893 0.595-1.435 0.595s-1.052-0.211-1.435-0.595c-0.791-0.791-0.791-2.079 0-2.87 0.187-0.187 0.404-0.332 0.64-0.432 0.003-0.001 0.006-0.002 0.008-0.003l0.047-0.019c0.233-0.091 0.483-0.14 0.74-0.14zM13.129 17.684c0.141 0.241 0.314 0.468 0.521 0.675 0.204 0.204 0.431 0.379 0.674 0.521l-2.009 0.813 0.814-2.009zM18.879 14.315c-0.14-0.239-0.312-0.464-0.517-0.668-0.203-0.203-0.427-0.375-0.667-0.517l1.991-0.806-0.806 1.992z"></path>
</svg>
