<!-- Generated by IcoMoon.io -->
<svg version="1.1" xmlns="http://www.w3.org/2000/svg" width="32" height="32" viewBox="0 0 32 32">
<title>compass-2</title>
<path d="M16 0c-8.822 0-16 7.178-16 16s7.178 16 16 16c4.96 0 9.557-2.244 12.615-6.157 0.221-0.283 0.171-0.693-0.112-0.914s-0.693-0.171-0.914 0.112c-2.809 3.595-7.033 5.656-11.588 5.656-8.104 0-14.698-6.593-14.698-14.698s6.593-14.698 14.698-14.698 14.698 6.593 14.698 14.698c0 0.36 0.292 0.651 0.651 0.651s0.651-0.292 0.651-0.651c0-8.822-7.177-16-16-16z"></path>
<path d="M15.737 25.928c0.043 0.008 0.085 0.013 0.127 0.013 0.259 0 0.499-0.155 0.601-0.402l6.863-16.569c0.101-0.243 0.045-0.523-0.141-0.71s-0.466-0.242-0.71-0.141l-16.569 6.863c-0.287 0.119-0.45 0.424-0.39 0.729s0.328 0.524 0.639 0.524h9.055v9.055c0 0.311 0.219 0.578 0.524 0.639zM9.431 14.932l12.092-5.009-5.009 12.092v-6.432c0-0.36-0.292-0.651-0.651-0.651h-6.432z"></path>
</svg>
