<!-- Generated by IcoMoon.io -->
<svg version="1.1" xmlns="http://www.w3.org/2000/svg" width="32" height="32" viewBox="0 0 32 32">
<title>compass-3</title>
<path d="M20.791 23.028c-0.312-0.179-0.71-0.072-0.889 0.239l-3.901 6.776-3.901-6.776c-0.162-0.281-0.505-0.4-0.806-0.28l-3.798 1.517 1.517-3.798c0.12-0.301 0.001-0.644-0.28-0.806l-7.756-4.466c-0.312-0.179-0.71-0.072-0.889 0.239s-0.072 0.71 0.239 0.889l7.267 4.184-1.871 4.683c-0.097 0.242-0.040 0.518 0.144 0.702s0.46 0.241 0.702 0.144l4.683-1.871 4.184 7.267c0.116 0.202 0.331 0.326 0.564 0.326s0.448-0.124 0.564-0.326l4.466-7.756c0.18-0.312 0.072-0.71-0.239-0.889z"></path>
<path d="M31.674 15.436l-7.267-4.184 1.871-4.683c0.097-0.242 0.040-0.518-0.144-0.702s-0.46-0.241-0.702-0.144l-4.683 1.871-4.184-7.267c-0.116-0.202-0.331-0.326-0.564-0.326s-0.448 0.124-0.564 0.326l-4.184 7.267-4.683-1.871c-0.242-0.097-0.518-0.040-0.702 0.144s-0.241 0.46-0.144 0.702l1.871 4.683-2.12 1.221c-0.312 0.179-0.419 0.578-0.239 0.889s0.578 0.419 0.889 0.239l2.609-1.502c0.281-0.162 0.4-0.505 0.28-0.806l-1.517-3.798 3.798 1.517c0.301 0.12 0.644 0.001 0.806-0.28l3.901-6.776 3.901 6.776c0.162 0.281 0.505 0.4 0.806 0.28l3.798-1.517-1.517 3.798c-0.12 0.301-0.001 0.644 0.28 0.806l6.776 3.901-6.776 3.901c-0.281 0.162-0.4 0.505-0.28 0.806l2.080 5.207c0.102 0.255 0.346 0.41 0.605 0.41 0.080 0 0.162-0.015 0.241-0.047 0.334-0.133 0.497-0.512 0.363-0.846l-1.871-4.683 7.267-4.184c0.202-0.116 0.326-0.331 0.326-0.564s-0.125-0.448-0.326-0.564z"></path>
<path d="M16 20.108c2.265 0 4.108-1.843 4.108-4.108s-1.843-4.108-4.108-4.108c-2.265 0-4.108 1.843-4.108 4.108s1.843 4.108 4.108 4.108zM16 13.195c1.547 0 2.805 1.259 2.805 2.805s-1.259 2.805-2.805 2.805-2.805-1.259-2.805-2.805 1.259-2.805 2.805-2.805z"></path>
</svg>
