<!-- Generated by IcoMoon.io -->
<svg version="1.1" xmlns="http://www.w3.org/2000/svg" width="32" height="32" viewBox="0 0 32 32">
<title>connections</title>
<path d="M21.698 22.792c-2.539 0-4.604 2.065-4.604 4.604s2.065 4.604 4.604 4.604 4.604-2.065 4.604-4.604-2.065-4.604-4.604-4.604zM21.698 30.698c-1.82 0-3.301-1.481-3.301-3.301s1.481-3.301 3.301-3.301c1.82 0 3.301 1.481 3.301 3.301s-1.481 3.301-3.301 3.301z"></path>
<path d="M14.062 11.892c0.167 0 0.333-0.064 0.46-0.191l3.883-3.883c0.837 0.857 2.003 1.39 3.292 1.39 2.539 0 4.604-2.065 4.604-4.604s-2.065-4.604-4.604-4.604-4.604 2.065-4.604 4.604c0 0.776 0.194 1.507 0.534 2.149l-4.027 4.027c-0.254 0.254-0.254 0.667-0 0.921 0.127 0.127 0.294 0.191 0.46 0.191zM21.698 1.302c1.82 0 3.301 1.481 3.301 3.301s-1.481 3.301-3.301 3.301c-1.82 0-3.301-1.481-3.301-3.301s1.481-3.301 3.301-3.301z"></path>
<path d="M17.138 23.327l-3.838-3.838c0.982-0.845 1.606-2.095 1.606-3.489 0-2.539-2.065-4.604-4.604-4.604s-4.604 2.065-4.604 4.604 2.065 4.604 4.604 4.604c0.666 0 1.299-0.143 1.872-0.399l4.044 4.044c0.127 0.127 0.294 0.191 0.46 0.191s0.333-0.064 0.46-0.191c0.254-0.254 0.254-0.667 0-0.921zM7 16c0-1.82 1.481-3.301 3.301-3.301s3.301 1.481 3.301 3.301-1.481 3.301-3.301 3.301c-1.82 0-3.301-1.481-3.301-3.301z"></path>
</svg>
