<!-- Generated by IcoMoon.io -->
<svg version="1.1" xmlns="http://www.w3.org/2000/svg" width="32" height="32" viewBox="0 0 32 32">
<title>diagonal-enlarge</title>
<path d="M16 0c-8.822 0-16 7.178-16 16 0 5.546 2.809 10.618 7.514 13.567 0.305 0.191 0.707 0.099 0.898-0.206s0.099-0.707-0.206-0.898c-4.323-2.709-6.903-7.368-6.903-12.463 0-8.104 6.593-14.698 14.698-14.698s14.698 6.593 14.698 14.698-6.593 14.698-14.698 14.698c-0.36 0-0.651 0.292-0.651 0.651s0.292 0.651 0.651 0.651c8.822 0 16-7.178 16-16s-7.178-16-16-16z"></path>
<path d="M14.655 8.809l7.111 0.943c0.251 0.033 0.449 0.232 0.482 0.482l0.943 7.111c0.043 0.328 0.323 0.566 0.645 0.566 0.029 0 0.057-0.002 0.087-0.006 0.357-0.047 0.607-0.375 0.56-0.731l-0.943-7.111c-0.11-0.833-0.769-1.492-1.602-1.602l-7.111-0.943c-0.805-0.107-1.556 0.294-1.916 1.022s-0.221 1.569 0.353 2.142l5.098 5.098c0.254 0.254 0.667 0.254 0.921 0s0.254-0.667 0-0.921l-5.098-5.098c-0.264-0.264-0.148-0.56-0.106-0.645s0.208-0.357 0.577-0.308z"></path>
<path d="M17.432 24.499c0 0 0 0 0 0 0.748 0 1.419-0.453 1.71-1.154 0.293-0.708 0.138-1.485-0.405-2.028l-8.054-8.054c-0.354-0.354-0.819-0.55-1.307-0.55-0.544 0-1.063 0.236-1.422 0.646-0.353 0.403-0.507 0.923-0.435 1.466l0.943 7.111c0.111 0.833 0.769 1.492 1.602 1.602l7.111 0.943c0.086 0.011 0.173 0.017 0.258 0.017zM9.752 21.765l-0.943-7.111c-0.023-0.17 0.019-0.317 0.124-0.437 0.111-0.126 0.276-0.202 0.443-0.202 0.145 0 0.274 0.057 0.386 0.168l8.054 8.054c0.239 0.239 0.166 0.505 0.123 0.608-0.070 0.169-0.24 0.35-0.506 0.35h-0c-0.028 0-0.057-0.002-0.087-0.006l-7.111-0.943c-0.251-0.033-0.449-0.232-0.482-0.482z"></path>
</svg>
