<!-- Generated by IcoMoon.io -->
<svg version="1.1" xmlns="http://www.w3.org/2000/svg" width="32" height="32" viewBox="0 0 32 32">
<title>download</title>
<path d="M31.349 28.807c-0.36 0-0.651 0.292-0.651 0.651v1.24h-29.395v-4.34h30.046c0.36 0 0.651-0.292 0.651-0.651s-0.292-0.651-0.651-0.651h-30.698c-0.36 0-0.651 0.292-0.651 0.651v5.643c0 0.36 0.292 0.651 0.651 0.651h30.698c0.36 0 0.651-0.292 0.651-0.651v-1.891c0-0.36-0.292-0.651-0.651-0.651z"></path>
<path d="M15.54 22.083c0.122 0.122 0.288 0.191 0.461 0.191s0.338-0.069 0.46-0.191l8.288-8.288c0.254-0.254 0.254-0.667 0-0.921s-0.667-0.254-0.921 0l-7.828 7.828-7.828-7.828c-0.254-0.254-0.667-0.254-0.921 0s-0.254 0.667 0 0.921l8.288 8.288z"></path>
<path d="M16 18.605c0.36 0 0.651-0.292 0.651-0.651v-17.302c0-0.36-0.292-0.651-0.651-0.651s-0.651 0.292-0.651 0.651v17.302c0 0.36 0.292 0.651 0.651 0.651z"></path>
</svg>
