<!-- Generated by IcoMoon.io -->
<svg version="1.1" xmlns="http://www.w3.org/2000/svg" width="32" height="32" viewBox="0 0 32 32">
<title>downloading-from-smartphone</title>
<path d="M26.056 0h-20.111c-0.36 0-0.651 0.292-0.651 0.651v30.698c0 0.36 0.292 0.651 0.651 0.651h20.111c0.36 0 0.651-0.292 0.651-0.651v-30.698c-0-0.36-0.292-0.651-0.651-0.651zM25.404 1.302v25.051h-18.809v-20.707h16.568c0.36 0 0.651-0.292 0.651-0.651s-0.292-0.651-0.651-0.651h-16.568v-3.041h18.809zM6.596 30.698v-3.041h18.809v3.041h-18.809z"></path>
<path d="M16 18.93c0.36 0 0.651-0.292 0.651-0.651v-7.865c0-0.36-0.292-0.651-0.651-0.651s-0.651 0.292-0.651 0.651v7.865c0 0.36 0.292 0.651 0.651 0.651z"></path>
<path d="M19.070 17.595l-3.070 3.070-3.070-3.070c-0.254-0.254-0.667-0.254-0.921 0s-0.254 0.667 0 0.921l3.53 3.53c0.127 0.127 0.294 0.191 0.46 0.191s0.333-0.064 0.46-0.191l3.53-3.53c0.254-0.254 0.254-0.667 0-0.921s-0.667-0.254-0.921-0z"></path>
</svg>
