<!-- Generated by IcoMoon.io -->
<svg version="1.1" xmlns="http://www.w3.org/2000/svg" width="32" height="32" viewBox="0 0 32 32">
<title>favorites-button</title>
<path d="M21.666 19.046c-0.069-0.215 0.007-0.448 0.189-0.582l4.061-2.98c0.647-0.474 0.904-1.274 0.657-2.036s-0.926-1.258-1.728-1.262l-5.037-0.023c-0.225-0.001-0.424-0.145-0.495-0.359l-1.579-4.784c-0.251-0.762-0.932-1.254-1.734-1.254v0c-0.802 0-1.483 0.492-1.734 1.254l-0.712 2.155c-0.113 0.341 0.073 0.71 0.414 0.822s0.71-0.073 0.823-0.414l0.712-2.155c0.11-0.334 0.408-0.359 0.497-0.359s0.387 0.026 0.497 0.359l1.579 4.784c0.246 0.746 0.94 1.25 1.725 1.254l5.037 0.023c0.351 0.002 0.468 0.277 0.495 0.362s0.095 0.376-0.188 0.584l-4.062 2.98c-0.634 0.465-0.898 1.28-0.659 2.028l1.535 4.8c0.107 0.335-0.119 0.531-0.191 0.583s-0.328 0.207-0.613 0.001l-4.089-2.943c-0.638-0.459-1.495-0.459-2.133 0l-4.090 2.943c-0.285 0.205-0.542 0.051-0.613-0.001s-0.298-0.248-0.191-0.583l1.535-4.8c0.239-0.748-0.026-1.563-0.659-2.028l-4.061-2.98c-0.283-0.208-0.216-0.499-0.188-0.584s0.144-0.36 0.495-0.362l5.038-0.023c0.36-0.002 0.65-0.295 0.648-0.654-0.002-0.359-0.293-0.648-0.651-0.648-0.001 0-0.002 0-0.003 0l-5.038 0.023c-0.802 0.004-1.48 0.499-1.728 1.262s0.010 1.562 0.656 2.037l4.061 2.98c0.182 0.133 0.258 0.367 0.189 0.582l-1.534 4.8c-0.244 0.764 0.017 1.562 0.666 2.033 0.326 0.236 0.699 0.355 1.073 0.355 0.371 0 0.742-0.117 1.067-0.35l4.090-2.943c0.183-0.132 0.429-0.132 0.612 0l4.089 2.943c0.651 0.468 1.491 0.467 2.14-0.005s0.91-1.27 0.666-2.033l-1.535-4.8z"></path>
<path d="M16 0c-8.822 0-16 7.178-16 16s7.178 16 16 16c0.36 0 0.651-0.292 0.651-0.651s-0.292-0.651-0.651-0.651c-8.104 0-14.698-6.593-14.698-14.698s6.593-14.698 14.698-14.698 14.698 6.593 14.698 14.698c0 5.045-2.542 9.679-6.8 12.397-0.303 0.194-0.392 0.596-0.198 0.899s0.596 0.392 0.899 0.198c4.634-2.959 7.401-8.004 7.401-13.495 0-8.822-7.177-16-16-16z"></path>
</svg>
