<!-- Generated by IcoMoon.io -->
<svg version="1.1" xmlns="http://www.w3.org/2000/svg" width="32" height="32" viewBox="0 0 32 32">
<title>folders</title>
<path d="M0.651 4.425c0.36 0 0.651-0.292 0.651-0.651 0-1.005 0.817-1.822 1.822-1.822h5.825l4.585 5.008c0.123 0.135 0.298 0.212 0.48 0.212h14.861c1.005 0 1.822 0.817 1.822 1.822 0 0.36 0.292 0.651 0.651 0.651s0.651-0.292 0.651-0.651c0-1.723-1.401-3.124-3.124-3.124h-14.574l-4.585-5.008c-0.123-0.135-0.298-0.212-0.48-0.212h-6.112c-1.723 0-3.124 1.401-3.124 3.124 0 0.36 0.292 0.651 0.651 0.651z"></path>
<path d="M28.876 10.213h-14.574l-4.585-5.008c-0.123-0.135-0.298-0.212-0.48-0.212h-6.112c-1.723 0-3.124 1.401-3.124 3.124v12.875c0 0.36 0.292 0.651 0.651 0.651s0.651-0.292 0.651-0.651v-12.875c0-1.005 0.817-1.822 1.822-1.822h5.825l4.585 5.008c0.123 0.135 0.298 0.212 0.48 0.212h14.861c1.005 0 1.822 0.817 1.822 1.822v14.889c0 1.004-0.817 1.822-1.822 1.822h-25.752c-1.005 0-1.822-0.817-1.822-1.822 0-0.36-0.292-0.651-0.651-0.651s-0.651 0.292-0.651 0.651c0 1.723 1.401 3.124 3.124 3.124h25.752c1.723 0 3.124-1.401 3.124-3.124v-14.889c0-1.723-1.401-3.124-3.124-3.124z"></path>
</svg>
