<!-- Generated by IcoMoon.io -->
<svg version="1.1" xmlns="http://www.w3.org/2000/svg" width="32" height="32" viewBox="0 0 32 32">
<title>glasses</title>
<path d="M8.502 9.773c-2.174 0-4.090 1.121-5.204 2.814h-2.643c-0.362 0-0.655 0.293-0.655 0.655s0.293 0.655 0.655 0.655h1.987c-0.237 0.657-0.367 1.366-0.367 2.103 0 3.433 2.793 6.227 6.227 6.227s6.227-2.793 6.227-6.227-2.793-6.227-6.227-6.227zM8.502 20.917c-2.711 0-4.917-2.206-4.917-4.917s2.206-4.917 4.917-4.917 4.917 2.206 4.917 4.917-2.206 4.917-4.917 4.917z"></path>
<path d="M31.345 12.587h-2.952c-0.316-0.482-0.699-0.922-1.141-1.304-1.129-0.974-2.573-1.51-4.065-1.51-2.23 0-4.188 1.179-5.288 2.945-0.478-0.611-1.22-1.004-2.054-1.004-0.437 0-0.869 0.11-1.25 0.319-0.317 0.174-0.434 0.571-0.26 0.889s0.571 0.433 0.889 0.26c0.192-0.105 0.401-0.158 0.622-0.158 0.715 0 1.297 0.582 1.297 1.297 0 0.045 0.005 0.088 0.013 0.13-0.127 0.495-0.195 1.014-0.195 1.549 0 3.433 2.793 6.227 6.227 6.227 2.578 0 4.92-1.62 5.829-4.032 0.127-0.338-0.043-0.716-0.382-0.843s-0.716 0.043-0.844 0.382c-0.718 1.904-2.567 3.184-4.603 3.184-2.711 0-4.917-2.206-4.917-4.917s2.206-4.917 4.917-4.917c2.436 0 4.479 1.744 4.857 4.146 0.056 0.357 0.391 0.601 0.749 0.545s0.601-0.391 0.545-0.748c-0.061-0.386-0.159-0.764-0.29-1.129h2.298c0.362 0 0.655-0.293 0.655-0.655s-0.293-0.655-0.655-0.655z"></path>
</svg>
