<!-- Generated by IcoMoon.io -->
<svg version="1.1" xmlns="http://www.w3.org/2000/svg" width="32" height="32" viewBox="0 0 32 32">
<title>high-volume</title>
<path d="M23.1 2.697c-0.344-0.142-0.737 0.022-0.879 0.365s0.022 0.737 0.365 0.879c4.901 2.023 8.068 6.757 8.068 12.059 0 7.191-5.85 13.040-13.041 13.040-0.372 0-0.673 0.301-0.673 0.673s0.301 0.673 0.673 0.673c7.933 0 14.387-6.454 14.387-14.387 0-5.849-3.494-11.071-8.9-13.303z"></path>
<path d="M17.613 25.345c5.153 0 9.345-4.192 9.345-9.345s-4.192-9.345-9.345-9.345c-0.372 0-0.673 0.301-0.673 0.673s0.301 0.673 0.673 0.673c4.411 0 7.999 3.588 7.999 7.999s-3.588 7.999-7.999 7.999c-0.372 0-0.673 0.301-0.673 0.673s0.301 0.673 0.673 0.673z"></path>
<path d="M19.804 18.353c-0.272 0.253-0.287 0.679-0.034 0.951 0.133 0.142 0.312 0.214 0.493 0.214 0.164 0 0.329-0.060 0.459-0.181 0.923-0.86 1.453-2.077 1.453-3.338 0-2.515-2.046-4.561-4.561-4.561-0.372 0-0.673 0.301-0.673 0.673s0.301 0.673 0.673 0.673c1.773 0 3.215 1.442 3.215 3.215-0 0.902-0.364 1.738-1.024 2.353z"></path>
<path d="M14.672 1.665c-0.251-0.104-0.541-0.047-0.733 0.145l-7.113 7.102h-6.152c-0.372 0-0.673 0.301-0.673 0.673v12.829c0 0.372 0.301 0.673 0.673 0.673h6.431c0.372 0 0.673-0.301 0.673-0.673s-0.301-0.673-0.673-0.673h-5.758v-11.483h5.758c0.178 0 0.349-0.071 0.476-0.197l6.162-6.152v24.181l-3.324-3.319c-0.263-0.263-0.689-0.262-0.952 0.001s-0.262 0.689 0.001 0.952l4.472 4.465c0.129 0.129 0.301 0.197 0.476 0.197 0.087 0 0.174-0.017 0.258-0.051 0.251-0.104 0.415-0.35 0.415-0.622v-27.427c-0-0.272-0.164-0.518-0.415-0.622z"></path>
</svg>
