<!-- Generated by IcoMoon.io -->
<svg version="1.1" xmlns="http://www.w3.org/2000/svg" width="32" height="32" viewBox="0 0 32 32">
<title>home</title>
<path d="M28.899 15.871c-0.428 0-0.775 0.347-0.775 0.775v13.805h-8.315v-8.666c0-0.428-0.347-0.775-0.775-0.775h-6.070c-0.428 0-0.775 0.347-0.775 0.775v6.871c0 0.428 0.347 0.775 0.775 0.775s0.775-0.347 0.775-0.775v-6.096h4.52v7.891h-14.384v-18.966l12.124-9.717 12.415 9.949c0.334 0.268 0.822 0.214 1.089-0.12s0.214-0.821-0.12-1.089l-12.899-10.338c-0.283-0.227-0.686-0.227-0.969 0l-12.899 10.338c-0.183 0.147-0.29 0.369-0.29 0.605v20.113c0 0.428 0.347 0.775 0.775 0.775h25.799c0.428 0 0.775-0.347 0.775-0.775v-14.579c0-0.428-0.347-0.775-0.775-0.775z"></path>
</svg>
