<!-- Generated by IcoMoon.io -->
<svg version="1.1" xmlns="http://www.w3.org/2000/svg" width="32" height="32" viewBox="0 0 32 32">
<title>microphone</title>
<path d="M15.963 16.983h0.074c2.391 0 4.335-1.945 4.335-4.335v-8.312c0-2.391-1.945-4.335-4.335-4.335h-0.074c-2.391 0-4.335 1.945-4.335 4.335 0 0.367 0.297 0.664 0.664 0.664s0.664-0.297 0.664-0.664c0-1.658 1.349-3.007 3.007-3.007h0.074c1.658 0 3.007 1.349 3.007 3.007v8.312c0 1.658-1.349 3.007-3.007 3.007h-0.074c-1.658 0-3.007-1.349-3.007-3.007v-4.728c0-0.367-0.297-0.664-0.664-0.664s-0.664 0.297-0.664 0.664v4.728c0 2.391 1.945 4.335 4.335 4.335z"></path>
<path d="M22.483 12.694c-0.367 0-0.664 0.297-0.664 0.664 0 3.173-2.581 5.754-5.754 5.754h-0.13c-3.173 0-5.754-2.581-5.754-5.754 0-0.367-0.297-0.664-0.664-0.664s-0.664 0.297-0.664 0.664c0 3.905 3.177 7.082 7.082 7.082h0.13c3.905 0 7.082-3.177 7.082-7.082 0-0.367-0.297-0.664-0.664-0.664z"></path>
<path d="M15.935 21.535c-0.367 0-0.664 0.297-0.664 0.664v9.137c0 0.367 0.297 0.664 0.664 0.664s0.664-0.297 0.664-0.664v-9.137c0-0.367-0.297-0.664-0.664-0.664z"></path>
</svg>
