<!-- Generated by IcoMoon.io -->
<svg version="1.1" xmlns="http://www.w3.org/2000/svg" width="32" height="32" viewBox="0 0 32 32">
<title>mouse</title>
<path d="M24.441 8.909v-1.968c0-3.742-3.044-6.786-6.786-6.786h-0.123c-3.742 0-6.786 3.044-6.786 6.786v6.131c0 2.545-2.070 4.615-4.615 4.615h-0.107c-2.545 0-4.615-2.070-4.615-4.615v-12.212c0-0.389-0.316-0.705-0.705-0.705s-0.705 0.316-0.705 0.705v12.212c0 3.322 2.702 6.024 6.024 6.024h0.107c3.322 0 6.024-2.702 6.024-6.024v-6.131c0-2.965 2.412-5.377 5.377-5.377h0.123c2.965 0 5.377 2.412 5.377 5.377v1.974c-4.179 0.342-7.476 3.851-7.476 8.117v6.665c0 4.492 3.655 8.147 8.147 8.147h0.15c2.913 0 5.623-1.571 7.073-4.101 0.194-0.338 0.077-0.768-0.261-0.962s-0.768-0.077-0.962 0.261c-1.2 2.093-3.441 3.392-5.85 3.392h-0.15c-3.715 0-6.737-3.022-6.737-6.738v-6.665c0-3.489 2.666-6.366 6.067-6.704v7.358h-3.861c-0.389 0-0.705 0.316-0.705 0.705s0.316 0.705 0.705 0.705h11.419v2.777c0 0.389 0.316 0.705 0.705 0.705s0.705-0.316 0.705-0.705v-4.84c0-4.294-3.34-7.82-7.558-8.123zM24.441 17.686v-7.364c3.44 0.299 6.149 3.194 6.149 6.71v0.654h-6.149z"></path>
</svg>
