<!-- Generated by IcoMoon.io -->
<svg version="1.1" xmlns="http://www.w3.org/2000/svg" width="32" height="32" viewBox="0 0 32 32">
<title>multi-tab</title>
<path d="M31.349 0h-26.203c-0.36 0-0.651 0.292-0.651 0.651v1.888c0 0.36 0.292 0.651 0.651 0.651s0.651-0.292 0.651-0.651v-1.237h24.9v24.9h-1.237c-0.36 0-0.651 0.292-0.651 0.651s0.292 0.651 0.651 0.651h1.888c0.36 0 0.651-0.292 0.651-0.651v-26.203c0-0.36-0.292-0.651-0.651-0.651z"></path>
<path d="M26.854 4.495h-26.203c-0.36 0-0.651 0.292-0.651 0.651v26.203c0 0.36 0.292 0.651 0.651 0.651h26.203c0.36 0 0.651-0.292 0.651-0.651v-26.203c0-0.36-0.292-0.651-0.651-0.651zM26.203 30.698h-24.9v-24.9h24.9v24.9z"></path>
</svg>
