<!-- Generated by IcoMoon.io -->
<svg version="1.1" xmlns="http://www.w3.org/2000/svg" width="32" height="32" viewBox="0 0 32 32">
<title>mute</title>
<path d="M27.294 7.555c-0.288 0.215-0.348 0.623-0.133 0.911 1.632 2.189 2.495 4.794 2.495 7.534 0 6.957-5.66 12.616-12.616 12.616-0.36 0-0.651 0.292-0.651 0.651s0.292 0.651 0.651 0.651c7.675 0 13.919-6.244 13.919-13.919 0-3.022-0.952-5.896-2.753-8.312-0.215-0.288-0.623-0.348-0.911-0.133z"></path>
<path d="M17.041 3.384c2.4 0 4.734 0.676 6.75 1.956 0.108 0.069 0.229 0.101 0.348 0.101 0.216 0 0.426-0.107 0.55-0.302 0.193-0.304 0.103-0.706-0.201-0.899-2.225-1.412-4.801-2.159-7.448-2.159-0.36 0-0.651 0.292-0.651 0.651s0.292 0.651 0.651 0.651z"></path>
<path d="M31.809 0.191c-0.254-0.254-0.667-0.254-0.921 0l-8.515 8.515c-1.496-1.097-3.34-1.747-5.333-1.747-0.36 0-0.651 0.292-0.651 0.651s0.292 0.651 0.651 0.651c1.634 0 3.149 0.51 4.4 1.377l-2.419 2.42c-0.596-0.301-1.268-0.471-1.98-0.471-0.36 0-0.651 0.292-0.651 0.651s0.292 0.651 0.651 0.651c0.345 0 0.677 0.057 0.987 0.162l-9.694 9.694-1.001-1c-0.122-0.122-0.287-0.19-0.46-0.19h-5.571v-11.109h5.571c0.173 0 0.338-0.068 0.46-0.19l5.961-5.952v10.503c0 0.36 0.292 0.651 0.651 0.651s0.651-0.292 0.651-0.651v-12.074c0-0.263-0.159-0.501-0.402-0.602s-0.523-0.045-0.71 0.141l-6.882 6.871h-5.952c-0.36 0-0.651 0.292-0.651 0.651v12.412c0 0.36 0.292 0.651 0.651 0.651h5.952l0.81 0.809-7.223 7.223c-0.254 0.254-0.254 0.667 0 0.921 0.127 0.127 0.294 0.191 0.461 0.191s0.333-0.064 0.461-0.191l7.223-7.223 5.15 5.142c0.124 0.124 0.291 0.19 0.46 0.19 0.084 0 0.169-0.016 0.249-0.050 0.243-0.101 0.402-0.338 0.402-0.602v-8.058c0-0.36-0.292-0.651-0.651-0.651s-0.651 0.292-0.651 0.651v6.488l-4.038-4.032 9.922-9.922c0.599 0.567 0.973 1.369 0.973 2.257 0 1.715-1.395 3.111-3.11 3.111-0.36 0-0.651 0.292-0.651 0.651s0.292 0.651 0.651 0.651c2.433 0 4.413-1.98 4.413-4.413 0-1.247-0.521-2.374-1.355-3.177l2.351-2.351c1.437 1.406 2.331 3.364 2.331 5.528 0 4.267-3.471 7.739-7.739 7.739-0.36 0-0.651 0.292-0.651 0.651s0.292 0.651 0.651 0.651c4.985 0 9.041-4.056 9.041-9.041 0-2.523-1.040-4.807-2.712-6.448l8.44-8.44c0.254-0.254 0.254-0.667-0-0.921z"></path>
</svg>
