<!-- Generated by IcoMoon.io -->
<svg version="1.1" xmlns="http://www.w3.org/2000/svg" width="32" height="32" viewBox="0 0 32 32">
<title>new-file</title>
<path d="M22.198 2.427l-11.039 11.039c-0.088 0.088-0.15 0.197-0.182 0.317l-0.947 3.649c-0.062 0.239 0.007 0.493 0.182 0.667 0.132 0.132 0.31 0.204 0.492 0.204 0.058 0 0.117-0.007 0.175-0.022l3.649-0.948c0.12-0.031 0.23-0.094 0.317-0.182l11.039-11.039c0-0 0-0 0.001-0s0-0 0-0.001l2.222-2.222c0.272-0.272 0.272-0.713 0-0.984l-2.701-2.702c-0.131-0.131-0.308-0.204-0.492-0.204s-0.362 0.073-0.492 0.204l-2.222 2.222c-0 0-0 0-0.001 0s-0 0-0.001 0.001zM13.995 16.034l-2.319 0.602 0.602-2.319 10.413-10.413 1.717 1.717-10.413 10.413zM24.913 1.68l1.717 1.717-1.238 1.238-1.717-1.717 1.238-1.238z"></path>
<path d="M27.615 7.543c-0.384 0-0.696 0.312-0.696 0.696v22.368h-21.838v-26.615h12.885c0.384 0 0.696-0.312 0.696-0.696s-0.312-0.696-0.696-0.696h-13.581c-0.384 0-0.696 0.312-0.696 0.696v28.007c0 0.384 0.312 0.696 0.696 0.696h23.23c0.384 0 0.696-0.312 0.696-0.696v-23.065c0-0.384-0.312-0.696-0.696-0.696z"></path>
</svg>
