<!-- Generated by IcoMoon.io -->
<svg version="1.1" xmlns="http://www.w3.org/2000/svg" width="32" height="32" viewBox="0 0 32 32">
<title>next-page</title>
<path d="M31.063 10.632c-1.434-4.023-4.35-7.248-8.209-9.078s-8.2-2.049-12.224-0.615-7.248 4.35-9.079 8.209c-1.831 3.859-2.049 8.2-0.615 12.224 0.121 0.339 0.493 0.515 0.832 0.395s0.515-0.493 0.395-0.832c-1.318-3.696-1.117-7.684 0.565-11.229s4.644-6.223 8.339-7.541c3.696-1.318 7.684-1.117 11.229 0.565s6.223 4.644 7.541 8.339c1.318 3.696 1.117 7.684-0.565 11.229s-4.644 6.223-8.34 7.541c-4.143 1.477-8.687 1.030-12.468-1.226-0.309-0.184-0.708-0.083-0.892 0.225s-0.083 0.708 0.225 0.892c2.517 1.502 5.345 2.267 8.194 2.267 1.809 0 3.626-0.309 5.377-0.933 4.024-1.434 7.248-4.35 9.078-8.209s2.049-8.201 0.615-12.224z"></path>
<path d="M23.159 16.002c0-0.359-0.291-0.651-0.651-0.651h-16.21c-0.359 0-0.651 0.291-0.651 0.651s0.291 0.651 0.651 0.651h16.21c0.359 0 0.651-0.291 0.651-0.651z"></path>
<path d="M17.973 22.81c-0.254 0.254-0.254 0.666 0 0.92 0.127 0.127 0.294 0.191 0.46 0.191s0.333-0.064 0.46-0.191l7.268-7.268c0.254-0.254 0.254-0.666 0-0.92l-7.268-7.268c-0.254-0.254-0.666-0.254-0.92 0s-0.254 0.666 0 0.92l6.808 6.808-6.808 6.808z"></path>
</svg>
