<!-- Generated by IcoMoon.io -->
<svg version="1.1" xmlns="http://www.w3.org/2000/svg" width="32" height="32" viewBox="0 0 32 32">
<title>note</title>
<path d="M31.349 0h-30.698c-0.36 0-0.651 0.292-0.651 0.651v30.698c0 0.36 0.292 0.651 0.651 0.651h26.094c0.36 0 0.651-0.292 0.651-0.651s-0.292-0.651-0.651-0.651h-25.442v-29.395h29.395v30.046c0 0.36 0.292 0.651 0.651 0.651s0.651-0.292 0.651-0.651v-30.698c0-0.36-0.292-0.651-0.651-0.651z"></path>
<path d="M7.143 6.775c-1.377 0-2.496 1.12-2.496 2.496s1.12 2.496 2.496 2.496 2.496-1.12 2.496-2.496-1.12-2.496-2.496-2.496zM7.143 10.465c-0.658 0-1.194-0.536-1.194-1.194s0.536-1.194 1.194-1.194 1.194 0.536 1.194 1.194-0.535 1.194-1.194 1.194z"></path>
<path d="M26.788 8.62h-15.195c-0.36 0-0.651 0.292-0.651 0.651s0.292 0.651 0.651 0.651h15.195c0.36 0 0.651-0.292 0.651-0.651s-0.292-0.651-0.651-0.651z"></path>
<path d="M7.143 13.504c-0.36 0-0.651 0.292-0.651 0.651s0.292 0.651 0.651 0.651c0.658 0 1.194 0.536 1.194 1.194s-0.536 1.194-1.194 1.194-1.194-0.536-1.194-1.194c0-0.36-0.292-0.651-0.651-0.651s-0.651 0.292-0.651 0.651c0 1.377 1.12 2.496 2.496 2.496s2.496-1.12 2.496-2.496-1.12-2.496-2.496-2.496z"></path>
<path d="M26.788 15.349h-15.195c-0.36 0-0.651 0.292-0.651 0.651s0.292 0.651 0.651 0.651h15.195c0.36 0 0.651-0.292 0.651-0.651s-0.292-0.651-0.651-0.651z"></path>
<path d="M7.143 20.233c-1.377 0-2.496 1.12-2.496 2.496s1.12 2.496 2.496 2.496 2.496-1.12 2.496-2.496-1.12-2.496-2.496-2.496zM7.143 23.923c-0.658 0-1.194-0.536-1.194-1.194s0.536-1.194 1.194-1.194 1.194 0.536 1.194 1.194-0.535 1.194-1.194 1.194z"></path>
<path d="M26.788 22.078h-15.195c-0.36 0-0.651 0.292-0.651 0.651s0.292 0.651 0.651 0.651h15.195c0.36 0 0.651-0.292 0.651-0.651s-0.292-0.651-0.651-0.651z"></path>
</svg>
