<!-- Generated by IcoMoon.io -->
<svg version="1.1" xmlns="http://www.w3.org/2000/svg" width="32" height="32" viewBox="0 0 32 32">
<title>notification</title>
<path d="M31.241 21.119h-3.271v-5.961c0-6.294-4.93-11.458-11.13-11.835v-2.428c0-0.419-0.34-0.759-0.759-0.759s-0.759 0.34-0.759 0.759v2.419c-6.277 0.296-11.292 5.495-11.292 11.844v3.876c0 0.419 0.34 0.759 0.759 0.759s0.759-0.34 0.759-0.759v-3.876c0-5.702 4.639-10.341 10.341-10.341h0.224c5.702 0 10.341 4.639 10.341 10.341v5.961h-25.694c-0.419 0-0.759 0.34-0.759 0.759v4.399c0 0.419 0.34 0.759 0.759 0.759h30.483c0.419 0 0.759-0.34 0.759-0.759v-4.399c0-0.419-0.34-0.759-0.759-0.759zM30.483 25.518h-28.965v-2.881h28.965v2.881z"></path>
<path d="M18.736 27.638c-0.419 0-0.759 0.34-0.759 0.759 0 1.075-0.875 1.95-1.95 1.95h-0.055c-1.075 0-1.95-0.875-1.95-1.95 0-0.419-0.34-0.759-0.759-0.759s-0.759 0.34-0.759 0.759c0 1.912 1.555 3.467 3.467 3.467h0.055c1.912 0 3.467-1.555 3.467-3.467 0-0.419-0.34-0.759-0.759-0.759z"></path>
</svg>
