<!-- Generated by IcoMoon.io -->
<svg version="1.1" xmlns="http://www.w3.org/2000/svg" width="32" height="32" viewBox="0 0 32 32">
<title>open-book</title>
<path d="M31.349 25.551c0.36 0 0.651-0.292 0.651-0.651v-16.651c0-4.548-3.7-8.249-8.249-8.249h-0.153c-3.41 0-6.343 2.080-7.598 5.037-1.255-2.957-4.188-5.037-7.598-5.037h-0.153c-4.548 0-8.249 3.7-8.249 8.249v23.1c0 0.36 0.292 0.651 0.651 0.651h0.014c0.35 0 0.638-0.277 0.651-0.627 0.137-3.752 3.182-6.69 6.933-6.69h0.153c3.751 0 6.796 2.939 6.933 6.69 0.013 0.35 0.3 0.627 0.651 0.627h0.028c0.35 0 0.638-0.277 0.651-0.627 0.137-3.752 3.182-6.69 6.933-6.69h0.153c3.751 0 6.796 2.939 6.933 6.69 0.013 0.35 0.3 0.627 0.651 0.627h0.014c0.36 0 0.651-0.292 0.651-0.651 0-0.057-0.007-0.112-0.021-0.165-0.111-2.086-0.996-4.030-2.501-5.487-1.544-1.495-3.578-2.318-5.727-2.318h-0.153c-2.15 0-4.184 0.823-5.727 2.318-0.813 0.788-1.444 1.718-1.87 2.735-0.427-1.018-1.057-1.948-1.87-2.735-1.544-1.495-3.578-2.318-5.727-2.318h-0.153c-2.15 0-4.183 0.823-5.727 2.318-0.468 0.453-0.876 0.953-1.219 1.49v-18.939c0-3.83 3.116-6.946 6.946-6.946h0.153c3.83 0 6.946 3.116 6.946 6.946v14.589c0 0.36 0.292 0.651 0.651 0.651s0.651-0.292 0.651-0.651v-14.589c0-3.83 3.116-6.946 6.946-6.946h0.153c3.83 0 6.946 3.116 6.946 6.946v16.651c0 0.36 0.292 0.651 0.651 0.651z"></path>
</svg>
