<!-- Generated by IcoMoon.io -->
<svg version="1.1" xmlns="http://www.w3.org/2000/svg" width="32" height="32" viewBox="0 0 32 32">
<title>order</title>
<path d="M31.705 23.318c-0.254-0.254-0.667-0.254-0.921 0l-6.459 6.459v-29.125c0-0.36-0.292-0.651-0.651-0.651s-0.651 0.292-0.651 0.651v29.125l-6.459-6.459c-0.254-0.254-0.667-0.254-0.921 0s-0.254 0.667 0 0.921l7.571 7.571c0.127 0.127 0.294 0.191 0.46 0.191s0.333-0.064 0.46-0.191l7.571-7.571c0.254-0.254 0.254-0.666 0-0.921z"></path>
<path d="M0.755 1.302h19.551c0.36 0 0.651-0.292 0.651-0.651s-0.292-0.651-0.651-0.651h-19.551c-0.36 0-0.651 0.292-0.651 0.651s0.292 0.651 0.651 0.651z"></path>
<path d="M0.755 8.924h19.551c0.36 0 0.651-0.292 0.651-0.651s-0.292-0.651-0.651-0.651h-19.551c-0.36 0-0.651 0.292-0.651 0.651s0.292 0.651 0.651 0.651z"></path>
<path d="M0.755 16.546h19.551c0.36 0 0.651-0.292 0.651-0.651s-0.292-0.651-0.651-0.651h-19.551c-0.36 0-0.651 0.292-0.651 0.651s0.292 0.651 0.651 0.651z"></path>
<path d="M13.506 22.866h-12.751c-0.36 0-0.651 0.292-0.651 0.651s0.292 0.651 0.651 0.651h12.751c0.36 0 0.651-0.292 0.651-0.651s-0.292-0.651-0.651-0.651z"></path>
<path d="M13.506 30.488h-12.751c-0.36 0-0.651 0.292-0.651 0.651s0.292 0.651 0.651 0.651h12.751c0.36 0 0.651-0.292 0.651-0.651s-0.292-0.651-0.651-0.651z"></path>
</svg>
