<!-- Generated by IcoMoon.io -->
<svg version="1.1" xmlns="http://www.w3.org/2000/svg" width="32" height="32" viewBox="0 0 32 32">
<title>padlock</title>
<path d="M26.169 13.468h-1.559v-4.937c0-4.704-3.827-8.531-8.531-8.531h-0.159c-4.704 0-8.531 3.827-8.531 8.531v4.937h-1.559c-0.36 0-0.651 0.292-0.651 0.651v17.23c0 0.36 0.292 0.651 0.651 0.651s0.651-0.292 0.651-0.651v-16.579h19.036v15.928h-12.014c-0.36 0-0.651 0.292-0.651 0.651s0.292 0.651 0.651 0.651h12.666c0.36 0 0.651-0.292 0.651-0.651v-17.23c0-0.36-0.292-0.651-0.651-0.651zM8.692 13.468v-4.937c0-3.986 3.243-7.228 7.228-7.228h0.159c3.986 0 7.228 3.243 7.228 7.228v4.937h-14.616z"></path>
<path d="M16 19.471c0.36 0 0.651-0.292 0.651-0.651s-0.292-0.651-0.651-0.651c-1.547 0-2.805 1.259-2.805 2.805s1.259 2.805 2.805 2.805 2.805-1.259 2.805-2.805c0-0.36-0.292-0.651-0.651-0.651s-0.651 0.292-0.651 0.651c0 0.829-0.674 1.503-1.503 1.503s-1.503-0.674-1.503-1.503 0.674-1.503 1.503-1.503z"></path>
</svg>
