<!-- Generated by IcoMoon.io -->
<svg version="1.1" xmlns="http://www.w3.org/2000/svg" width="32" height="32" viewBox="0 0 32 32">
<title>picture</title>
<path d="M31.349 6.015c-0.36 0-0.651 0.292-0.651 0.651v24.031h-29.395v-29.395h30.046c0.36 0 0.651-0.292 0.651-0.651s-0.292-0.651-0.651-0.651h-30.698c-0.36 0-0.651 0.292-0.651 0.651v30.698c0 0.36 0.292 0.651 0.651 0.651h30.698c0.36 0 0.651-0.292 0.651-0.651v-24.683c0-0.36-0.292-0.651-0.651-0.651z"></path>
<path d="M4.246 3.595c-0.36 0-0.651 0.292-0.651 0.651v18.869c0 0.36 0.292 0.651 0.651 0.651h23.508c0.36 0 0.651-0.292 0.651-0.651v-18.869c0-0.36-0.292-0.651-0.651-0.651h-23.508zM4.897 4.897h22.206v16.604l-6.806-6.806c-0.254-0.254-0.667-0.254-0.921 0l-1.88 1.88-3.355-3.355c-0.254-0.254-0.667-0.254-0.921 0l-6.458 6.458c-0.254 0.254-0.254 0.667 0 0.921s0.667 0.254 0.921 0l5.997-5.997 3.355 3.355c0.254 0.254 0.667 0.254 0.921 0l1.88-1.88 6.387 6.387h-21.327v-17.567z"></path>
</svg>
