<!-- Generated by IcoMoon.io -->
<svg version="1.1" xmlns="http://www.w3.org/2000/svg" width="32" height="32" viewBox="0 0 32 32">
<title>pin</title>
<path d="M16 0c-5.711 0-10.357 4.646-10.357 10.357 0 5.107 3.543 11.802 6.514 16.518 0.192 0.304 0.594 0.396 0.898 0.204s0.396-0.594 0.204-0.898c-5.218-8.282-6.314-13.177-6.314-15.824 0-4.993 4.062-9.055 9.055-9.055s9.055 4.062 9.055 9.055c0 8.108-9.474 20.47-9.57 20.593-0.22 0.285-0.167 0.694 0.117 0.913 0.119 0.092 0.259 0.136 0.398 0.136 0.195 0 0.387-0.087 0.516-0.253 0.402-0.52 9.842-12.837 9.842-21.39-0-5.711-4.646-10.357-10.357-10.357z"></path>
<path d="M16 7.055c0.36 0 0.651-0.292 0.651-0.651s-0.292-0.651-0.651-0.651c-2.539 0-4.605 2.066-4.605 4.605s2.066 4.605 4.605 4.605 4.605-2.066 4.605-4.605c0-1.014-0.323-1.976-0.935-2.782-0.217-0.286-0.626-0.342-0.912-0.125s-0.342 0.626-0.125 0.912c0.438 0.578 0.67 1.267 0.67 1.995 0 1.821-1.482 3.303-3.303 3.303s-3.303-1.482-3.303-3.303 1.482-3.303 3.303-3.303z"></path>
</svg>
