<!-- Generated by IcoMoon.io -->
<svg version="1.1" xmlns="http://www.w3.org/2000/svg" width="32" height="32" viewBox="0 0 32 32">
<title>play-button</title>
<path d="M30.229 8.677c-1.12-2.173-2.755-4.092-4.725-5.549-0.289-0.214-0.697-0.153-0.911 0.136s-0.153 0.697 0.136 0.911c1.811 1.339 3.313 3.103 4.342 5.099 1.079 2.092 1.626 4.355 1.626 6.726 0 8.104-6.593 14.698-14.698 14.698s-14.698-6.593-14.698-14.698 6.593-14.698 14.698-14.698c0.36 0 0.651-0.292 0.651-0.651s-0.292-0.651-0.651-0.651c-8.822 0-16 7.178-16 16s7.178 16 16 16 16-7.178 16-16c0-2.544-0.612-5.077-1.771-7.323z"></path>
<path d="M11.906 8.571c-0.204 0.116-0.329 0.332-0.329 0.566v14.291c0 0.36 0.292 0.651 0.651 0.651s0.651-0.292 0.651-0.651v-13.145l9.641 5.739-7.090 4.568c-0.302 0.195-0.39 0.598-0.195 0.9s0.598 0.39 0.9 0.195l7.973-5.137c0.189-0.122 0.302-0.334 0.298-0.559s-0.124-0.433-0.318-0.548l-11.529-6.863c-0.201-0.12-0.451-0.122-0.655-0.007z"></path>
</svg>
