<!-- Generated by IcoMoon.io -->
<svg version="1.1" xmlns="http://www.w3.org/2000/svg" width="32" height="32" viewBox="0 0 32 32">
<title>play-button-1</title>
<path d="M27.261 11.145c-0.471-0.293-1.090-0.15-1.383 0.321s-0.15 1.090 0.321 1.383c1.095 0.683 1.748 1.861 1.748 3.151s-0.654 2.468-1.748 3.151l-16.467 10.267c-1.162 0.724-2.57 0.76-3.767 0.096s-1.912-1.878-1.912-3.247v-20.535c0-1.369 0.715-2.583 1.912-3.247s2.605-0.628 3.767 0.096l9.586 5.977c0.471 0.293 1.090 0.15 1.383-0.321s0.15-1.090-0.321-1.383l-9.586-5.977c-1.79-1.116-3.959-1.171-5.803-0.148s-2.945 2.893-2.945 5.002v20.535c0 2.109 1.101 3.979 2.945 5.002 0.878 0.487 1.83 0.73 2.78 0.73 1.044 0 2.086-0.293 3.023-0.878l16.467-10.267c1.687-1.052 2.694-2.867 2.694-4.855s-1.007-3.803-2.694-4.855z"></path>
</svg>
