<!-- Generated by IcoMoon.io -->
<svg version="1.1" xmlns="http://www.w3.org/2000/svg" width="32" height="32" viewBox="0 0 32 32">
<title>refresh-button</title>
<path d="M16 0c-0.36 0-0.651 0.292-0.651 0.651s0.292 0.651 0.651 0.651c8.104 0 14.698 6.593 14.698 14.698s-6.593 14.698-14.698 14.698-14.698-6.593-14.698-14.698c0-5.514 3.043-10.517 7.943-13.057 0.319-0.166 0.444-0.558 0.278-0.878s-0.559-0.444-0.878-0.278c-5.333 2.765-8.646 8.211-8.646 14.213 0 8.822 7.178 16 16 16s16-7.178 16-16-7.177-16-16-16z"></path>
<path d="M22.272 7.757c-1.815-1.383-3.984-2.115-6.272-2.115-5.711 0-10.357 4.646-10.357 10.357s4.646 10.357 10.357 10.357c2.766 0 5.367-1.077 7.324-3.034 0.254-0.254 0.254-0.667 0-0.921s-0.667-0.254-0.921 0c-1.71 1.71-3.984 2.652-6.403 2.652-4.993 0-9.055-4.062-9.055-9.055s4.062-9.055 9.055-9.055c4.004 0 7.58 2.682 8.696 6.523 0.1 0.345 0.462 0.544 0.807 0.444s0.544-0.462 0.444-0.807c-0.613-2.11-1.918-4.009-3.675-5.348z"></path>
<path d="M23.635 14.029c-0.254-0.254-0.667-0.254-0.921 0s-0.254 0.667 0 0.921l2.45 2.45c0.122 0.122 0.288 0.191 0.46 0.191s0.338-0.069 0.46-0.191l2.45-2.45c0.254-0.254 0.254-0.667 0-0.921s-0.667-0.254-0.921 0l-1.989 1.989-1.989-1.989z"></path>
</svg>
