<!-- Generated by IcoMoon.io -->
<svg version="1.1" xmlns="http://www.w3.org/2000/svg" width="32" height="32" viewBox="0 0 32 32">
<title>retweet</title>
<path d="M26.522 23.709h-21.382v-5.148h2.81c0.284 0 0.546-0.155 0.682-0.405s0.125-0.553-0.029-0.792l-3.587-5.568c-0.143-0.222-0.389-0.356-0.653-0.356s-0.51 0.134-0.653 0.356l-3.587 5.568c-0.154 0.239-0.165 0.543-0.029 0.792s0.398 0.405 0.682 0.405h2.81v5.924c0 0.429 0.348 0.777 0.777 0.777h22.159c0.429 0 0.777-0.348 0.777-0.777s-0.348-0.776-0.777-0.776zM4.363 13.65l2.163 3.358h-4.326l2.163-3.358z"></path>
<path d="M31.905 13.844c-0.136-0.25-0.397-0.405-0.682-0.405h-2.81v-5.924c0-0.429-0.348-0.777-0.777-0.777h-22.159c-0.429 0-0.777 0.348-0.777 0.777s0.348 0.777 0.777 0.777h21.382v5.924c0 0.429 0.348 0.777 0.777 0.777h2.163l-2.163 3.358-2.934-4.555c-0.232-0.361-0.713-0.465-1.073-0.232s-0.465 0.713-0.232 1.073l3.587 5.568c0.143 0.222 0.389 0.356 0.653 0.356s0.51-0.134 0.653-0.356l3.587-5.568c0.154-0.239 0.165-0.543 0.029-0.792z"></path>
</svg>
