<!-- Generated by IcoMoon.io -->
<svg version="1.1" xmlns="http://www.w3.org/2000/svg" width="32" height="32" viewBox="0 0 32 32">
<title>settings</title>
<path d="M26.064 21.92c-0.254-0.254-0.667-0.254-0.921 0s-0.254 0.667 0 0.921l1.266 1.266c0.303 0.303 0.47 0.706 0.47 1.135s-0.167 0.832-0.47 1.135l-0.032 0.032c-0.303 0.303-0.706 0.47-1.135 0.47s-0.832-0.167-1.135-0.47l-1.266-1.266c-0.219-0.219-0.563-0.254-0.821-0.081-1.181 0.786-2.483 1.326-3.868 1.604-0.304 0.061-0.523 0.328-0.523 0.639v1.788c0 0.885-0.72 1.605-1.605 1.605h-0.046c-0.885 0-1.605-0.72-1.605-1.605v-1.788c0-0.31-0.219-0.578-0.523-0.639-1.386-0.278-2.687-0.817-3.868-1.604-0.258-0.172-0.602-0.138-0.821 0.081l-1.266 1.266c-0.303 0.303-0.706 0.47-1.135 0.47s-0.832-0.167-1.135-0.47l-0.032-0.032c-0.303-0.303-0.47-0.706-0.47-1.135s0.167-0.832 0.47-1.135l1.266-1.266c0.219-0.219 0.254-0.563 0.082-0.821-0.787-1.181-1.326-2.483-1.604-3.868-0.061-0.304-0.328-0.523-0.638-0.523h-1.788c-0.885 0-1.605-0.72-1.605-1.605v-0.046c0-0.885 0.72-1.605 1.605-1.605h1.788c0.31 0 0.577-0.219 0.638-0.523 0.278-1.386 0.818-2.687 1.604-3.868 0.172-0.258 0.138-0.602-0.082-0.821l-1.266-1.266c-0.303-0.303-0.47-0.706-0.47-1.135s0.167-0.832 0.47-1.135l0.032-0.032c0.303-0.303 0.706-0.47 1.135-0.47s0.832 0.167 1.135 0.47l1.266 1.266c0.254 0.254 0.667 0.254 0.921-0s0.254-0.667 0-0.921l-1.266-1.266c-0.549-0.549-1.279-0.852-2.056-0.852s-1.507 0.302-2.056 0.852l-0.032 0.032c-0.549 0.549-0.852 1.279-0.852 2.056s0.302 1.507 0.852 2.056l0.897 0.897c-0.633 1.047-1.1 2.173-1.393 3.358h-1.267c-1.603 0-2.908 1.304-2.908 2.908v0.046c0 1.603 1.304 2.907 2.908 2.907h1.267c0.292 1.185 0.759 2.311 1.393 3.358l-0.897 0.897c-0.549 0.549-0.852 1.279-0.852 2.056s0.302 1.507 0.852 2.056l0.032 0.032c0.549 0.549 1.279 0.852 2.056 0.852s1.507-0.302 2.056-0.852l0.897-0.897c1.048 0.634 2.173 1.1 3.358 1.393v1.267c0 1.603 1.304 2.908 2.908 2.908h0.046c1.603 0 2.908-1.304 2.908-2.908v-1.267c1.185-0.292 2.311-0.759 3.358-1.393l0.897 0.897c0.549 0.549 1.279 0.852 2.056 0.852s1.507-0.302 2.056-0.852l0.032-0.032c0.549-0.549 0.852-1.279 0.852-2.056s-0.302-1.507-0.852-2.056l-1.266-1.266z"></path>
<path d="M29.092 13.070h-1.267c-0.292-1.185-0.759-2.311-1.393-3.358l0.897-0.897c1.134-1.134 1.134-2.978 0-4.112l-0.032-0.032c-0.549-0.549-1.279-0.852-2.056-0.852s-1.507 0.302-2.056 0.852l-0.897 0.897c-1.048-0.634-2.173-1.1-3.358-1.393v-1.267c-0-1.603-1.304-2.908-2.908-2.908h-0.046c-1.603 0-2.908 1.304-2.908 2.908v1.788c0 0.36 0.292 0.651 0.651 0.651s0.651-0.292 0.651-0.651v-1.788c0-0.885 0.72-1.605 1.605-1.605h0.046c0.885 0 1.605 0.72 1.605 1.605v1.788c0 0.31 0.219 0.577 0.523 0.638 1.386 0.278 2.687 0.817 3.868 1.604 0.258 0.172 0.602 0.138 0.821-0.082l1.266-1.266c0.303-0.303 0.706-0.47 1.135-0.47s0.832 0.167 1.135 0.47l0.032 0.032c0.303 0.303 0.47 0.706 0.47 1.135s-0.167 0.832-0.47 1.135l-1.266 1.266c-0.219 0.219-0.254 0.563-0.082 0.821 0.786 1.181 1.326 2.483 1.604 3.868 0.061 0.304 0.328 0.523 0.639 0.523h1.788c0.885 0 1.605 0.72 1.605 1.605v0.046c0 0.885-0.72 1.605-1.605 1.605h-1.788c-0.36 0-0.651 0.292-0.651 0.651s0.292 0.651 0.651 0.651h1.788c1.603 0 2.908-1.304 2.908-2.907v-0.046c0-1.603-1.304-2.908-2.908-2.908z"></path>
<path d="M16 18.453c-0.569 0-1.102-0.189-1.543-0.546-0.279-0.226-0.689-0.184-0.916 0.096s-0.184 0.689 0.096 0.916c0.666 0.54 1.505 0.837 2.363 0.837 2.071 0 3.755-1.685 3.755-3.756s-1.685-3.755-3.755-3.755-3.755 1.685-3.755 3.755c0 0.36 0.292 0.651 0.651 0.651s0.651-0.292 0.651-0.651c0-1.353 1.1-2.453 2.453-2.453s2.453 1.1 2.453 2.453-1.1 2.453-2.453 2.453z"></path>
</svg>
