<!-- Generated by IcoMoon.io -->
<svg version="1.1" xmlns="http://www.w3.org/2000/svg" width="32" height="32" viewBox="0 0 32 32">
<title>shop</title>
<path d="M31.349 9.881h-21.788v-0.433c0-3.512 2.857-6.369 6.369-6.369h0.142c2.253 0 4.361 1.209 5.5 3.156 0.182 0.31 0.58 0.415 0.891 0.233s0.415-0.581 0.233-0.891c-1.372-2.344-3.911-3.8-6.624-3.8h-0.142c-4.23 0-7.671 3.441-7.671 7.671v0.433h-7.607c-0.36 0-0.651 0.292-0.651 0.651v19.039c0 0.36 0.292 0.651 0.651 0.651h30.698c0.36 0 0.651-0.292 0.651-0.651v-19.039c0-0.36-0.292-0.651-0.651-0.651zM30.698 28.92h-29.395v-17.736h29.395v17.736z"></path>
</svg>
