<!-- Generated by IcoMoon.io -->
<svg version="1.1" xmlns="http://www.w3.org/2000/svg" width="32" height="32" viewBox="0 0 32 32">
<title>side-menu</title>
<path d="M31.349 0c-0.36 0-0.651 0.292-0.651 0.651v4.992h-27.504c-0.36 0-0.651 0.292-0.651 0.651s0.292 0.651 0.651 0.651h27.504v23.752h-7.191v-20.233c0-0.36-0.292-0.651-0.651-0.651s-0.651 0.292-0.651 0.651v20.233h-20.902v-29.395h25.985c0.36 0 0.651-0.292 0.651-0.651s-0.292-0.651-0.651-0.651h-26.636c-0.36 0-0.651 0.292-0.651 0.651v30.698c0 0.36 0.292 0.651 0.651 0.651h30.698c0.36 0 0.651-0.292 0.651-0.651v-30.698c0-0.36-0.292-0.651-0.651-0.651z"></path>
<path d="M24.692 11.174h4.775c0.36 0 0.651-0.292 0.651-0.651s-0.292-0.651-0.651-0.651h-4.775c-0.36 0-0.651 0.292-0.651 0.651s0.292 0.651 0.651 0.651z"></path>
<path d="M24.692 17.795h4.775c0.36 0 0.651-0.292 0.651-0.651s-0.292-0.651-0.651-0.651h-4.775c-0.36 0-0.651 0.292-0.651 0.651s0.292 0.651 0.651 0.651z"></path>
<path d="M24.692 14.484h4.775c0.36 0 0.651-0.292 0.651-0.651s-0.292-0.651-0.651-0.651h-4.775c-0.36 0-0.651 0.292-0.651 0.651s0.292 0.651 0.651 0.651z"></path>
<path d="M24.692 21.105h4.775c0.36 0 0.651-0.292 0.651-0.651s-0.292-0.651-0.651-0.651h-4.775c-0.36 0-0.651 0.292-0.651 0.651s0.292 0.651 0.651 0.651z"></path>
<path d="M24.692 27.725h4.775c0.36 0 0.651-0.292 0.651-0.651s-0.292-0.651-0.651-0.651h-4.775c-0.36 0-0.651 0.292-0.651 0.651s0.292 0.651 0.651 0.651z"></path>
<path d="M24.692 24.415h4.775c0.36 0 0.651-0.292 0.651-0.651s-0.292-0.651-0.651-0.651h-4.775c-0.36 0-0.651 0.292-0.651 0.651s0.292 0.651 0.651 0.651z"></path>
<path d="M3.004 3.012c-0.12 0.122-0.19 0.289-0.19 0.461 0 0.171 0.069 0.339 0.19 0.46 0.122 0.12 0.289 0.191 0.461 0.191 0.17 0 0.339-0.071 0.46-0.191 0.12-0.122 0.191-0.289 0.191-0.46 0-0.173-0.071-0.34-0.191-0.461-0.122-0.12-0.289-0.19-0.46-0.19-0.173 0-0.34 0.069-0.461 0.19z"></path>
<path d="M5.175 3.012c-0.122 0.122-0.191 0.29-0.191 0.46 0 0.171 0.069 0.34 0.191 0.461 0.12 0.12 0.289 0.19 0.46 0.19s0.34-0.069 0.46-0.19c0.121-0.122 0.191-0.29 0.191-0.461 0-0.17-0.070-0.339-0.191-0.46s-0.289-0.191-0.46-0.191-0.339 0.069-0.46 0.191z"></path>
<path d="M7.345 3.012c-0.12 0.122-0.191 0.29-0.191 0.461s0.070 0.339 0.191 0.46c0.122 0.122 0.29 0.191 0.461 0.191 0.17 0 0.339-0.069 0.46-0.191s0.191-0.29 0.191-0.46c0-0.171-0.070-0.34-0.191-0.461-0.122-0.12-0.29-0.191-0.46-0.191-0.171 0-0.34 0.071-0.461 0.191z"></path>
</svg>
