<!-- Generated by IcoMoon.io -->
<svg version="1.1" xmlns="http://www.w3.org/2000/svg" width="32" height="32" viewBox="0 0 32 32">
<title>spider-web</title>
<path d="M29.946 8.33c-0-0.027-0.002-0.055-0.005-0.082-0-0.002-0.001-0.004-0.001-0.006-0.003-0.024-0.009-0.049-0.015-0.073-0.002-0.007-0.004-0.013-0.006-0.020-0.006-0.020-0.012-0.039-0.020-0.058-0.003-0.007-0.005-0.013-0.008-0.020-0.010-0.024-0.022-0.048-0.035-0.072s-0.029-0.045-0.044-0.067c-0.004-0.006-0.009-0.011-0.013-0.016-0.013-0.016-0.026-0.031-0.040-0.046-0.005-0.005-0.010-0.010-0.015-0.015-0.017-0.017-0.036-0.033-0.055-0.048-0.002-0.002-0.004-0.003-0.006-0.005-0.022-0.017-0.044-0.031-0.067-0.045-0.002-0.001-0.004-0.003-0.006-0.004l-13.274-7.664c-0.002-0.001-0.004-0.002-0.006-0.003-0.024-0.013-0.048-0.026-0.073-0.036-0.002-0.001-0.004-0.001-0.005-0.002-0.023-0.009-0.047-0.017-0.071-0.024-0.006-0.002-0.013-0.003-0.020-0.005-0.020-0.005-0.041-0.009-0.061-0.012-0.007-0.001-0.013-0.002-0.020-0.003-0.026-0.003-0.053-0.005-0.080-0.005s-0.054 0.002-0.080 0.005c-0.007 0.001-0.013 0.002-0.020 0.003-0.021 0.003-0.041 0.007-0.061 0.012-0.007 0.002-0.013 0.003-0.020 0.005-0.024 0.007-0.048 0.015-0.071 0.024-0.002 0.001-0.004 0.001-0.005 0.002-0.025 0.011-0.050 0.023-0.073 0.036-0.002 0.001-0.004 0.002-0.005 0.003l-13.274 7.664c-0.002 0.001-0.004 0.003-0.006 0.004-0.023 0.014-0.046 0.029-0.068 0.045-0.001 0.001-0.002 0.002-0.003 0.002-0.020 0.016-0.039 0.033-0.057 0.051-0.005 0.005-0.010 0.010-0.015 0.015-0.014 0.015-0.027 0.030-0.040 0.046-0.004 0.006-0.009 0.011-0.013 0.017-0.015 0.020-0.029 0.041-0.042 0.063-0.001 0.001-0.001 0.002-0.002 0.003s-0 0.001-0.001 0.001c-0.013 0.023-0.025 0.047-0.035 0.071-0.002 0.006-0.005 0.012-0.007 0.018-0.008 0.020-0.015 0.040-0.021 0.060-0.002 0.006-0.004 0.013-0.005 0.019-0.006 0.024-0.011 0.048-0.014 0.072-0 0.002-0.001 0.004-0.001 0.007-0.004 0.027-0.005 0.055-0.006 0.082 0 0.002-0 0.003-0 0.005v15.328c0 0.002 0 0.004 0 0.006 0 0.027 0.002 0.055 0.005 0.082 0 0.002 0.001 0.004 0.001 0.006 0.003 0.024 0.009 0.049 0.015 0.073 0.002 0.007 0.004 0.013 0.006 0.020 0.006 0.020 0.012 0.039 0.020 0.058 0.003 0.006 0.005 0.013 0.008 0.020 0.010 0.024 0.022 0.048 0.035 0.072 0 0.001 0.001 0.001 0.001 0.002 0.014 0.025 0.030 0.049 0.048 0.072 0.010 0.013 0.021 0.025 0.032 0.037 0.009 0.010 0.017 0.020 0.026 0.029 0.014 0.014 0.029 0.026 0.044 0.039 0.008 0.006 0.015 0.013 0.022 0.019 0.017 0.013 0.035 0.024 0.053 0.035 0.006 0.004 0.012 0.009 0.019 0.013l0.004 0.002c0.001 0 0.001 0.001 0.002 0.001l9.349 5.398c0.322 0.186 0.732 0.075 0.918-0.246s0.075-0.732-0.246-0.918l-8.347-4.819 2.697-1.557 8.562 4.943v4.278c0 0.002 0 0.005 0 0.007 0 0.014 0.001 0.029 0.002 0.043 0.001 0.008 0.001 0.016 0.002 0.024 0.001 0.013 0.004 0.026 0.006 0.040 0.002 0.009 0.003 0.018 0.005 0.027 0.002 0.011 0.005 0.022 0.008 0.033s0.006 0.022 0.009 0.032c0.003 0.009 0.006 0.017 0.010 0.026 0.005 0.012 0.009 0.025 0.014 0.037 0.003 0.007 0.007 0.015 0.011 0.022 0.006 0.013 0.013 0.026 0.020 0.038 0.001 0.002 0.002 0.004 0.003 0.007 0.002 0.003 0.005 0.006 0.007 0.010 0.011 0.019 0.024 0.037 0.037 0.055 0.005 0.006 0.009 0.012 0.014 0.018 0.016 0.020 0.033 0.039 0.051 0.058 0.005 0.005 0.010 0.009 0.016 0.014 0.014 0.013 0.029 0.026 0.044 0.038 0.007 0.006 0.015 0.011 0.023 0.017 0.016 0.011 0.032 0.022 0.048 0.032 0.006 0.003 0.011 0.007 0.017 0.010 0.023 0.013 0.047 0.024 0.071 0.034 0.003 0.001 0.007 0.002 0.010 0.004 0.021 0.008 0.043 0.015 0.065 0.022 0.007 0.002 0.013 0.003 0.020 0.005 0.020 0.005 0.039 0.009 0.059 0.012 0.007 0.001 0.014 0.002 0.021 0.003 0.024 0.003 0.049 0.005 0.074 0.005 0.002 0 0.004 0 0.005 0 0.003 0 0.007-0.001 0.011-0.001 0.022-0 0.045-0.002 0.066-0.004 0.009-0.001 0.018-0.003 0.027-0.004 0.018-0.003 0.036-0.006 0.053-0.010 0.008-0.002 0.017-0.004 0.025-0.006 0.022-0.006 0.043-0.013 0.064-0.022 0.003-0.001 0.007-0.002 0.011-0.004 0.025-0.011 0.050-0.023 0.073-0.036 0.002-0.001 0.004-0.002 0.006-0.003l13.274-7.664c0.208-0.12 0.336-0.342 0.336-0.582v-15.329c0-0.002 0-0.004-0-0.006zM7.438 20.167v-8.352l2.7 1.55v5.242l-2.7 1.559zM3.397 9.496l2.697 1.548v9.899l-2.697 1.557v-13.004zM15.328 14.795l-3.147-1.806 3.147-1.817v3.623zM16.672 11.171l3.174 1.832-3.174 1.832v-3.665zM21.189 12.228l-4.518-2.608v-3.118l7.218 4.167-2.7 1.559zM15.328 4.95l-5.039 2.909c-0.321 0.186-0.431 0.597-0.246 0.918s0.597 0.432 0.918 0.246l4.367-2.522v3.118l-4.495 2.595-6.761-3.881 11.256-6.499v3.114zM11.482 14.137l3.21 1.842-3.21 1.853v-3.695zM15.328 17.164v3.665l-3.174-1.832 3.174-1.832zM16.672 17.116l3.225 1.851-3.225 1.862v-3.713zM16.672 22.38l4.572-2.64 2.708 1.555-7.281 4.204v-3.118zM21.861 18.545v-2.769c0-0.371-0.301-0.672-0.672-0.672s-0.672 0.301-0.672 0.672v1.998l-3.132-1.798 7.176-4.143v8.262l-2.7-1.55zM25.234 9.893l-8.562-4.943v-3.114l11.259 6.5-2.697 1.557zM8.11 21.331l2.7-1.559 4.518 2.608v3.118l-7.218-4.167zM16.672 30.164v-3.114l8.629-4.982 1.564 0.897c0.105 0.061 0.221 0.089 0.334 0.089 0.233 0 0.459-0.121 0.583-0.338 0.185-0.322 0.073-0.733-0.248-0.917l-1.627-0.934v-9.809l2.697-1.557v13.776l-11.931 6.888z"></path>
</svg>
