<!-- Generated by IcoMoon.io -->
<svg version="1.1" xmlns="http://www.w3.org/2000/svg" width="32" height="32" viewBox="0 0 32 32">
<title>tracker</title>
<path d="M16 19.528c1.945 0 3.528-1.583 3.528-3.528s-1.583-3.528-3.528-3.528-3.528 1.583-3.528 3.528 1.583 3.528 3.528 3.528zM16 13.867c1.176 0 2.133 0.957 2.133 2.133s-0.957 2.133-2.133 2.133-2.133-0.957-2.133-2.133 0.957-2.133 2.133-2.133z"></path>
<path d="M31.303 15.303h-2.763c-0.35-6.371-5.471-11.492-11.842-11.842v-2.763c0-0.385-0.312-0.697-0.697-0.697s-0.697 0.312-0.697 0.697v3.441c0 0.385 0.312 0.697 0.697 0.697 6.156 0 11.165 5.008 11.165 11.165s-5.008 11.165-11.165 11.165-11.165-5.008-11.165-11.165c0-4.275 2.493-8.231 6.352-10.077 0.347-0.166 0.494-0.583 0.328-0.93s-0.583-0.494-0.93-0.328c-2.107 1.008-3.89 2.582-5.156 4.551-1.175 1.827-1.848 3.919-1.967 6.087h-2.764c-0.385 0-0.697 0.312-0.697 0.697s0.312 0.697 0.697 0.697h2.763c0.35 6.371 5.471 11.492 11.842 11.842v2.763c0 0.385 0.312 0.697 0.697 0.697s0.697-0.312 0.697-0.697v-2.763c6.371-0.35 11.492-5.471 11.842-11.842h2.763c0.385 0 0.697-0.312 0.697-0.697s-0.312-0.697-0.697-0.697z"></path>
</svg>
